:SAMPLES-PER-SECOND 30
:FULLY-SPECIFIED
:DEGREES
515
root  0.169105 34.1096 20.582 4.23857 49.2444 -1.70627
LeftUpLeg  -8.44909 4.27762 6.92269
LeftLeg  11.2231 0.145463 0.0179586
LeftFoot  1.6291 -0.00559037 -0.0317194
LeftToes  -23.1128 1.92152e-006 4.03786e-008
Spine  1.74806 1.63175 1.34895
Spine1  3.27682 3.18327 2.78895
RightShoulder  0.0847473 5.56666 7.03041
RightArm  -32.7953 -16.5359 70.9985
RightForeArm  31.7485 15.5959 2.81477
RightHand  1.19819 -13.0109 -10.1035
LeftShoulder1  0.0469552 0.57023 -9.84911
LeftArm  -11.397 12.0372 -71.7497
LeftForeArm  25.9195 -16.2412 -2.9392
LeftHand  0.175151 5.49335 3.17802
HEad  -11.5116 30.8701 -6.67827
RightUpLeg  -7.58716 -9.48542 -2.2704
RightLeg  9.97209 -10.9217 -1.192
RightFoot  1.15695 0.0128961 -0.19401
RightToes  -30.5713 -0.143075 -0.251111
516
root  0.200534 34.095 20.5856 4.28918 49.2618 -1.69118
LeftUpLeg  -8.53067 4.19829 6.88389
LeftLeg  11.4127 0.215452 0.0279276
LeftFoot  1.45406 -0.00537907 -0.0350031
LeftToes  -23.1301 1.92152e-006 4.03786e-008
Spine  1.76412 1.61987 1.34693
Spine1  3.29268 3.15589 2.78723
RightShoulder  0.0897415 5.49075 7.2768
RightArm  -33.2128 -16.4814 70.687
RightForeArm  31.8573 15.4936 2.79528
RightHand  1.21042 -13.0206 -10.202
LeftShoulder1  0.0469552 0.72961 -10.0161
LeftArm  -11.692 11.946 -71.705
LeftForeArm  26.0932 -16.1801 -2.92748
LeftHand  0.176038 5.43559 3.19866
HEad  -11.7115 31.0052 -6.89523
RightUpLeg  -7.75877 -9.44039 -2.31146
RightLeg  10.3673 -10.9821 -1.27474
RightFoot  0.969017 0.0104778 -0.156458
RightToes  -30.6689 -0.143075 -0.251111
517
root  0.231401 34.0781 20.5902 4.31543 49.2858 -1.68714
LeftUpLeg  -8.65234 4.23355 6.8573
LeftLeg  11.7176 0.156183 0.0206926
LeftFoot  1.22559 -0.00521491 -0.0375543
LeftToes  -23.0667 1.92152e-006 4.03786e-008
Spine  1.77689 1.60816 1.35083
Spine1  3.30204 3.12995 2.79596
RightShoulder  0.0941524 5.3486 7.52746
RightArm  -33.4888 -16.4222 70.4027
RightForeArm  32.0417 15.4408 2.78515
RightHand  1.219 -13.0312 -10.2678
LeftShoulder1  0.0469552 0.849939 -10.1538
LeftArm  -11.9596 11.9444 -71.695
LeftForeArm  26.2166 -16.1251 -2.91694
LeftHand  0.177196 5.41627 3.28591
HEad  -11.7629 31.2594 -7.02076
RightUpLeg  -7.89715 -9.4085 -2.34828
RightLeg  10.7328 -11.0297 -1.35112
RightFoot  0.755863 0.00767967 -0.113008
RightToes  -30.6167 -0.143075 -0.251111
518
root  0.264159 34.0655 20.5995 4.36305 49.3219 -1.67369
LeftUpLeg  -8.74371 4.26538 6.82724
LeftLeg  11.9383 0.0961898 0.012575
LeftFoot  1.03173 -0.00511958 -0.0390357
LeftToes  -23.0132 1.92152e-006 4.03786e-008
Spine  1.7818 1.5995 1.34551
Spine1  3.30138 3.11267 2.78378
RightShoulder  0.0962543 5.20233 7.75776
RightArm  -33.6719 -16.3814 70.2074
RightForeArm  32.3073 15.3841 2.7742
RightHand  1.22911 -13.0194 -10.3652
LeftShoulder1  0.0469552 0.920037 -10.2243
LeftArm  -12.268 11.9908 -71.7225
LeftForeArm  26.3014 -16.0192 -2.89673
LeftHand  0.177362 5.42627 3.3267
HEad  -11.653 31.5063 -7.1169
RightUpLeg  -7.9774 -9.39448 -2.38202
RightLeg  10.9592 -11.0783 -1.40117
RightFoot  0.605179 0.00569085 -0.0821265
RightToes  -30.6206 -0.143075 -0.251111
519
root  0.296009 34.0591 20.6097 4.41843 49.3502 -1.65987
LeftUpLeg  -8.76024 4.21914 6.79576
LeftLeg  11.987 0.123433 0.0166297
LeftFoot  0.936324 -0.00505952 -0.0399692
LeftToes  -22.9407 1.92152e-006 4.03786e-008
Spine  1.77615 1.5894 1.33676
Spine1  3.28529 3.09467 2.7628
RightShoulder  0.0977832 5.12423 7.88061
RightArm  -33.7753 -16.3983 70.1554
RightForeArm  32.3741 15.3236 2.76271
RightHand  1.23127 -13.0155 -10.4478
LeftShoulder1  0.0469552 0.977666 -10.1902
LeftArm  -12.5516 12.0815 -71.8418
LeftForeArm  26.4474 -15.864 -2.86711
LeftHand  0.177665 5.43087 3.37154
HEad  -11.3451 31.8488 -7.20363
RightUpLeg  -8.00246 -9.30863 -2.41468
RightLeg  11.0461 -11.1952 -1.43289
RightFoot  0.536465 0.00483987 -0.068913
RightToes  -30.5882 -0.143075 -0.251111
520
root  0.326182 34.0566 20.6177 4.44661 49.3298 -1.65017
LeftUpLeg  -8.75184 4.22789 6.7669
LeftLeg  12.0446 0.142843 0.0196028
LeftFoot  0.845466 -0.00502424 -0.0405173
LeftToes  -22.8985 1.92152e-006 4.03786e-008
Spine  1.76924 1.5874 1.33624
Spine1  3.27624 3.09306 2.75877
RightShoulder  0.0988007 5.09588 7.89835
RightArm  -33.8374 -16.439 70.2133
RightForeArm  32.399 15.2517 2.74908
RightHand  1.22595 -12.9851 -10.3889
LeftShoulder1  0.0469552 1.02314 -10.1402
LeftArm  -12.6803 12.2292 -71.9804
LeftForeArm  26.5908 -15.7332 -2.84219
LeftHand  0.176714 5.45727 3.3428
HEad  -10.9043 32.2008 -7.29531
RightUpLeg  -8.00093 -9.24853 -2.44853
RightLeg  11.1002 -11.2354 -1.44868
RightFoot  0.499896 0.00436458 -0.0615331
RightToes  -30.6319 -0.143075 -0.251111
521
root  0.352495 34.0547 20.6226 4.46979 49.3022 -1.63187
LeftUpLeg  -8.75982 4.22057 6.73372
LeftLeg  12.1436 0.171081 0.0240443
LeftFoot  0.751414 -0.00500331 -0.0408427
LeftToes  -22.8584 1.92152e-006 4.03786e-008
Spine  1.76912 1.59199 1.33444
Spine1  3.27814 3.10458 2.75313
RightShoulder  0.0994281 5.05983 7.89975
RightArm  -33.8458 -16.4683 70.3296
RightForeArm  32.512 15.1988 2.739
RightHand  1.22078 -12.9694 -10.3341
LeftShoulder1  0.0469552 1.04183 -10.118
LeftArm  -12.713 12.397 -72.0751
LeftForeArm  26.6475 -15.6609 -2.82844
LeftHand  0.176716 5.43604 3.33458
HEad  -10.6742 32.5109 -7.43878
RightUpLeg  -7.99579 -9.18912 -2.4877
RightLeg  11.1498 -11.2684 -1.46273
RightFoot  0.470554 0.00396872 -0.0553864
RightToes  -30.6852 -0.143075 -0.251111
522
root  0.376276 34.0507 20.626 4.50266 49.2501 -1.60716
LeftUpLeg  -8.76793 4.233 6.69572
LeftLeg  12.2366 0.215307 0.0309699
LeftFoot  0.661601 -0.00498625 -0.0411078
LeftToes  -22.8448 1.92152e-006 4.03786e-008
Spine  1.78358 1.60633 1.32531
Spine1  3.30815 3.13564 2.73357
RightShoulder  0.0997357 5.03317 7.92295
RightArm  -33.7982 -16.467 70.4652
RightForeArm  32.6974 15.1777 2.73487
RightHand  1.21808 -12.9738 -10.307
LeftShoulder1  0.0469552 1.04802 -10.1396
LeftArm  -12.7133 12.5539 -72.1077
LeftForeArm  26.7308 -15.6639 -2.82898
LeftHand  0.175747 5.43833 3.27624
HEad  -10.7787 32.7686 -7.66166
RightUpLeg  -8.00593 -9.16457 -2.52939
RightLeg  11.203 -11.2469 -1.47054
RightFoot  0.430095 0.00338547 -0.0463301
RightToes  -30.7225 -0.143075 -0.251111
523
root  0.397786 34.0469 20.6286 4.55907 49.2091 -1.56725
LeftUpLeg  -8.77645 4.24534 6.64856
LeftLeg  12.287 0.248293 0.0361495
LeftFoot  0.582368 -0.00499477 -0.0409754
LeftToes  -22.7967 1.92152e-006 4.03786e-008
Spine  1.81687 1.62122 1.30742
Spine1  3.37515 3.16647 2.69957
RightShoulder  0.0997651 5.01469 7.94016
RightArm  -33.6525 -16.4468 70.6239
RightForeArm  32.7069 15.2136 2.74165
RightHand  1.20545 -12.9065 -10.2521
LeftShoulder1  0.0469552 1.04763 -10.1805
LeftArm  -12.7565 12.6402 -72.1311
LeftForeArm  26.7863 -15.6668 -2.82952
LeftHand  0.176655 5.40751 3.32867
HEad  -11.0884 32.9511 -7.8675
RightUpLeg  -8.0183 -9.15516 -2.57756
RightLeg  11.2263 -11.2212 -1.47185
RightFoot  0.403831 0.00297913 -0.0400209
RightToes  -30.7989 -0.143075 -0.251111
524
root  0.417697 34.0434 20.6336 4.60394 49.1947 -1.53992
LeftUpLeg  -8.79015 4.26569 6.61632
LeftLeg  12.3452 0.241313 0.0353371
LeftFoot  0.512046 -0.0050077 -0.0407745
LeftToes  -22.8019 1.92152e-006 4.03786e-008
Spine  1.84343 1.62985 1.28314
Spine1  3.42885 3.18456 2.65432
RightShoulder  0.0995711 5.00613 7.9498
RightArm  -33.5321 -16.4404 70.8262
RightForeArm  32.6271 15.265 2.75143
RightHand  1.2041 -12.9503 -10.2417
LeftShoulder1  0.0469552 1.04574 -10.2116
LeftArm  -12.8162 12.6925 -72.1574
LeftForeArm  26.7613 -15.6374 -2.82394
LeftHand  0.176054 5.41236 3.30223
HEad  -11.3635 33.0967 -7.93517
RightUpLeg  -8.01952 -9.08812 -2.61161
RightLeg  11.2484 -11.2732 -1.48295
RightFoot  0.360472 0.00238793 -0.0308413
RightToes  -30.7917 -0.143075 -0.251111
525
root  0.429499 34.0424 20.637 4.62893 49.1676 -1.52765
LeftUpLeg  -8.80174 4.32157 6.59952
LeftLeg  12.3916 0.212521 0.0311208
LeftFoot  0.468512 -0.00502103 -0.0405672
LeftToes  -22.8083 1.92152e-006 4.03786e-008
Spine  1.86382 1.64234 1.25872
Spine1  3.47059 3.21011 2.60954
RightShoulder  0.0992051 4.98955 7.93257
RightArm  -33.45 -16.4252 71.0584
RightForeArm  32.612 15.2983 2.75774
RightHand  1.20459 -12.9584 -10.202
LeftShoulder1  0.0469552 1.04596 -10.2324
LeftArm  -12.8786 12.7435 -72.2004
LeftForeArm  26.7685 -15.6034 -2.81748
LeftHand  0.17563 5.41453 3.28654
HEad  -11.5021 33.1645 -7.90799
RightUpLeg  -8.032 -8.94972 -2.62909
RightLeg  11.2797 -11.3813 -1.50325
RightFoot  0.352288 0.00228744 -0.0292811
RightToes  -30.8528 -0.143075 -0.251111
